SplineFontDB: 3.2
FontName: NikaGros
FullName: NikaGros
FamilyName: NikaGros
Weight: Regular
Copyright: Copyright (c) 2025, pokus
UComments: "2025-10-19: Created with FontForge (http://fontforge.org)"
Version: 001.000
ItalicAngle: 0
UnderlinePosition: -100
UnderlineWidth: 50
Ascent: 800
Descent: 200
InvalidEm: 0
LayerCount: 2
Layer: 0 0 "Back" 1
Layer: 1 0 "Fore" 0
XUID: [1021 554 515388733 8466]
OS2Version: 0
OS2_WeightWidthSlopeOnly: 0
OS2_UseTypoMetrics: 1
CreationTime: 1760892632
ModificationTime: 1763402070
OS2TypoAscent: 0
OS2TypoAOffset: 1
OS2TypoDescent: 0
OS2TypoDOffset: 1
OS2TypoLinegap: 0
OS2WinAscent: 0
OS2WinAOffset: 1
OS2WinDescent: 0
OS2WinDOffset: 1
HheadAscent: 0
HheadAOffset: 1
HheadDescent: 0
HheadDOffset: 1
OS2Vendor: 'PfEd'
MarkAttachClasses: 1
DEI: 91125
Encoding: iso8859-2
UnicodeInterp: none
NameList: AGL For New Fonts
DisplaySize: -48
AntiAlias: 1
FitToEm: 0
WinInfo: 0 38 14
BeginPrivate: 0
EndPrivate
BeginChars: 256 20

StartChar: N
Encoding: 78 78 0
Width: 581
Flags: HW
LayerCount: 2
Fore
SplineSet
161 387 m 0
 161 282 62 214 62 109 c 27
 62 20 281 -43 281 46 c 3
 281 204.432617188 165.932617188 489 224 489 c 3
 298.276367188 489 389 273.818093342 389 87 c 3
 389 8 569 -37 569 42 c 3
 569 148.0234375 413 245.310546875 413 735 c 3
 413 831.046875 174 714 248 714 c 3
 293.694335938 714 413 513 338 513 c 3
 247.55078125 513 235 729 125 729 c 3
 67 729 -54.2080078125 597 59 597 c 3
 69.666015625 597 161 479.871099341 161 387 c 0
EndSplineSet
EndChar

StartChar: i
Encoding: 105 105 1
Width: 234
Flags: HW
LayerCount: 2
Fore
SplineSet
10 355 m 0
 9.412109375 394.99609375 53 417 94 417 c 0
 135 417 159 407 159 367 c 0
 159 327 148 301 80 335 c 0
 64.091796875 342.954101562 12 219 10 355 c 0
67 241 m 0
 62.064453125 131.087890625 -23 154 52 46 c 0
 127 -62 214 40 208 88 c 0
 206.688476562 98.4912109375 156.28125 222.038085938 154 226 c 1
 154.365234375 224.827148438 73.8828125 394.288085938 67 241 c 0
EndSplineSet
EndChar

StartChar: k
Encoding: 107 107 2
Width: 373
Flags: HW
LayerCount: 2
Fore
SplineSet
44 696 m 1
 21.6959358938 610.598688574 138.010742188 97.7646484375 32 33 c 0
 -38.8212890625 -10.2666015625 123.518554688 -14.67578125 152 33 c 0
 158.154296875 43.3017578125 161 165 161 165 c 1
 158.158203125 208.750976562 247.040901815 114.293944062 248 27 c 0
 248.643554688 -31.57421875 358.296875 20.7802734375 356 27 c 0
 353.990234375 32.443359375 183.745117188 216.153320312 277 243 c 5
 336.637695312 230.588867188 337 243 340 270 c 5
 331.095703125 323.303710938 300.911064995 395.535915471 248 324 c 1
 210.7734375 231.25390625 178.282226562 227.62109375 149 282 c 1
 125.086914062 396.529296875 68.79296875 481.510742188 161 702 c 1
 122 730.551757812 83 769.03515625 44 696 c 1
EndSplineSet
EndChar

StartChar: a
Encoding: 97 97 3
Width: 388
Flags: HW
LayerCount: 2
Fore
SplineSet
95 198 m 0
 75.3916015625 245.932617188 80 273 149 246 c 0
 176.9375 235.068359375 178.603482279 206.988190739 203 198 c 0
 260 177 200 60 164 75 c 0
 42.5320555107 125.611643537 121.999528772 131.999807227 95 198 c 0
263 300 m 1
 156.33203125 284.845703125 42.111328125 441.62109375 23 224 c 5
 5.876953125 -83.9482421875 173.307617188 -1.5986328125 265 62 c 5
 262 -19.1923828125 392.000000831 -21.0563746519 365 66 c 1
 248 174 357.451171875 262.615234375 368 336 c 1
 317.237304688 339.311523438 198.287109375 408.862304688 263 300 c 1
EndSplineSet
EndChar

StartChar: G
Encoding: 71 71 4
Width: 540
Flags: HW
LayerCount: 2
Fore
SplineSet
299 129 m 1
 296 123 223 159 211 180 c 1
 10.6005859375 280.783203125 180.153320312 556.420898438 179 555 c 1
 356.8359375 854.719726562 323.935546875 582.5078125 413 528 c 1
 573.49869612 602.200060251 532.873046875 644.694335938 464 675 c 1
 323.975585938 681.549804688 414.612304688 740.2265625 361 783 c 1
 328 783 175.3125 768.47265625 119 654 c 0
 -53.5283203125 303.28125 37.763671875 200.84765625 95 126 c 0
 173 24 292.349609375 0 302 0 c 0
 544 0 541 303 443 372 c 1
 443 372 512.204101562 400.999023438 449 462 c 1
 244.87890625 353.626953125 225.618164062 640.716796875 266 480 c 1
 232.979959576 564.128481847 125.326171875 308.401367188 200 342 c 1
 317 396 365.40625 362.4921875 371 306 c 1
 377 279 425.716796875 93.642578125 299 129 c 1
EndSplineSet
EndChar

StartChar: r
Encoding: 114 114 5
Width: 314
Flags: HW
LayerCount: 2
Fore
SplineSet
15 342 m 1
 49.017578125 400.012695312 72.3720703125 365.856445312 99 360 c 1
 138.233398438 335 110.479492188 346 108 321 c 1
 36.912109375 184.469726562 204.573242188 322.172851562 255 270 c 1
 306 258 334.07421875 56.2177734375 213 198 c 1
 136.924804688 215.352539062 140.57421875 190.549804688 120 174 c 1
 24.8671875 76.9443359375 176.774414062 61.095703125 159 30 c 0
 135.833984375 -10.5283203125 -1.4287109375 -9.6943359375 12 30 c 0
 63.3251953125 181.708007812 11.048828125 208.505859375 15 342 c 1
EndSplineSet
EndChar

StartChar: o
Encoding: 111 111 6
Width: 381
Flags: HW
LayerCount: 2
Fore
SplineSet
137 288 m 1
 107.817382812 273.017578125 92.251953125 237.901367188 110 183 c 1
 97.248046875 132.212890625 237.305664062 99.0380859375 221 192 c 0
 203.506835938 291.732421875 179 288 137 288 c 1
24 160 m 0
 55.62109375 279.10546875 -43.876953125 351.077148438 131 371 c 0
 253.209960938 384.922851562 215.81640625 332.153320312 302 243 c 0
 450.455078125 89.4287109375 284.05078125 -3.599609375 176 -3 c 0
 56.3681640625 -2.3359375 -21.822265625 -12.5966796875 24 160 c 0
EndSplineSet
EndChar

StartChar: s
Encoding: 115 115 7
Width: 316
Flags: HW
LayerCount: 2
Fore
SplineSet
212 272 m 5
 337.536346021 303.443359375 292.880859375 331.263671875 300 364 c 5
 219.746353966 367.838033143 122.050980395 344.391157503 70 302 c 5
 70.3623046875 302 -59.8448465116 224.605465978 34 182 c 5
 78.7927058937 177.372241103 309.904097555 164.025094182 152 100 c 5
 83.0912025459 60.1159157717 -27.4721669387 129.890193628 22 56 c 5
 66.509765625 5.2236328125 85.9287109375 -21.1220703125 192 20 c 5
 192 20 267.541992188 69.4501953125 312 144 c 5
 287.473632812 195.455078125 17.89453125 197.1875 138 256 c 5
 212 272 l 5
EndSplineSet
EndChar

StartChar: Cacute
Encoding: 198 262 8
Width: 602
Flags: HW
LayerCount: 2
Fore
SplineSet
281 906 m 5
 364.458984375 917.72265625 361.171875 915.875976562 341 882 c 5
 283.634765625 821.151367188 242.916992188 799.1875 170 801 c 5
 135.604492188 828.725585938 188.736328125 871.279296875 281 906 c 5
173 855 m 1028
49 386 m 0
 111.470746123 959.338220892 420.428075128 685.294572322 495 520 c 0
 545.071274506 409.013057942 112.971679688 823.045898438 159 358 c 0
 193.139648438 13.0703125 707.970770607 235.180586385 481 38 c 0
 342.764648438 -82.091796875 21.4896347265 133.517920613 49 386 c 0
EndSplineSet
EndChar

StartChar: cacute
Encoding: 230 263 9
Width: 326
Flags: HW
LayerCount: 2
Fore
SplineSet
200 477 m 1
 283.458984375 488.72265625 280.171875 486.875976562 260 453 c 1
 202.634765625 392.151367188 161.916992188 370.1875 89 372 c 1
 54.6044921875 399.725585938 107.736328125 442.279296875 200 477 c 1
92 426 m 1024
17 141 m 4
 17 254 154.999982752 371.999967421 206 345 c 4
 486.956054687 196.258789062 90.6943359375 293.227539062 92 168 c 4
 93.2646484375 46.697265625 499.283934232 234.156583118 210 21 c 4
 153 -21 17 28 17 141 c 4
EndSplineSet
EndChar

StartChar: zcaron
Encoding: 190 382 10
Width: 421
Flags: HW
LayerCount: 2
Fore
SplineSet
104 483 m 5
 -121 441 112 354 112 354 c 5
 406.399414062 344.736328125 278 512 266 495 c 5
 28.8662109375 369.102539062 126.278320312 484.393554688 104 483 c 5
38 339 m 1
 -34.416015625 322.408203125 5 198 50 171 c 1
 131.022460938 104.110351562 49.4140625 323.092773438 203 246 c 1
 277 144 -96.6650390625 57.876953125 56 -3 c 1
 176 -3 215 63 338 -3 c 1
 483.927734375 18.8310546875 378.358398438 178.883789062 329 144 c 1
 0 30 257 177 326 189 c 1
 431 249 298.685546875 352.745117188 203 342 c 1
 108.260742188 263.112304688 95.7060546875 345.303710938 38 339 c 1
EndSplineSet
EndChar

StartChar: Ccaron
Encoding: 200 268 11
Width: 602
Flags: HW
LayerCount: 2
Fore
SplineSet
138 921 m 5
 45 918 160.15625 789.443359375 228 804 c 5
 323.922983164 811.817403691 389.661609981 948.819908035 264 882 c 5
 208.685546875 849.729492188 228 828 138 921 c 5
49 386 m 0
 111.470746123 959.338220892 420.428075128 685.294572322 495 520 c 0
 545.071274506 409.013057942 112.971679688 823.045898438 159 358 c 0
 193.139648438 13.0703125 707.970770607 235.180586385 481 38 c 0
 342.764648438 -82.091796875 21.4896347265 133.517920613 49 386 c 0
EndSplineSet
EndChar

StartChar: ccaron
Encoding: 232 269 12
Width: 326
Flags: HW
LayerCount: 2
Fore
SplineSet
69 486 m 5
 -24 483 91.15625 354.443359375 159 369 c 5
 254.922851562 376.817382812 320.661132812 513.8203125 195 447 c 5
 139.685546875 414.729492188 159 393 69 486 c 5
17 141 m 0
 17 254 154.999982752 371.999967421 206 345 c 0
 486.956054687 196.258789062 90.6943359375 293.227539062 92 168 c 0
 93.2646484375 46.697265625 499.283934232 234.156583118 210 21 c 0
 153 -21 17 28 17 141 c 0
EndSplineSet
EndChar

StartChar: Zcaron
Encoding: 174 381 13
Width: 622
Flags: HW
LayerCount: 2
Fore
SplineSet
204 908 m 1
 -21 866 281 808 281 808 c 1
 575.399414062 798.736328125 490 923 478 906 c 1
 240.866210938 780.102539062 226.278320312 909.393554688 204 908 c 1
41 729 m 1
 -36.68359375 679.430664062 18 569 71 558 c 5
 529 410 -140.98046875 682.08984375 362 563 c 5
 412.709960938 463 -98.5844712475 49.2265640852 68 0 c 1
 188 0 360.080078125 -1.0400390625 503 0 c 1
 648.927734375 21.8310546875 531.358398438 220.883789062 482 186 c 1
 266.43359375 68.3916015625 207.251953125 120.5234375 227 177 c 1
 302.4765625 323.645507812 583.685546875 714.745117188 488 704 c 1
 326.274771855 627.444596174 110.989456069 782.567770174 41 729 c 1
EndSplineSet
EndChar

StartChar: scaron
Encoding: 185 353 14
Width: 316
Flags: HW
LayerCount: 2
Fore
SplineSet
104 483 m 5
 -121.730905924 440.445805291 89.4909827216 356.27351924 101 365 c 1
 395.399414062 355.736328125 267 523 255 506 c 5
 31.268134861 312.953649723 125.338325877 489.103295069 104 483 c 5
212 272 m 1
 337.536346021 303.443359375 292.880859375 331.263671875 300 364 c 1
 219.746353966 367.838033143 122.050980395 344.391157503 70 302 c 1
 70.3623046875 302 -59.8448465116 224.605465978 34 182 c 1
 78.7927058937 177.372241103 309.904097555 164.025094182 152 100 c 1
 83.0912025459 60.1159157717 -27.4721669387 129.890193628 22 56 c 1
 66.509765625 5.2236328125 85.9287109375 -21.1220703125 192 20 c 1
 192 20 267.541992188 69.4501953125 312 144 c 1
 287.473632812 195.455078125 17.89453125 197.1875 138 256 c 1
 212 272 l 1
EndSplineSet
EndChar

StartChar: Scaron
Encoding: 169 352 15
Width: 655
Flags: HW
LayerCount: 2
Fore
SplineSet
204 908 m 5
 -21 866 281 808 281 808 c 5
 575.399414062 798.736328125 490 923 478 906 c 5
 240.866210938 780.102539062 226.278320312 909.393554688 204 908 c 5
443 585 m 1
 573.02734375 606.536132812 642.465820312 728.450195312 557 714 c 1
 438.346679688 662.551757812 266.013671875 789.579101562 218 753 c 1
 27.23828125 710.538085938 -68.8310546875 448.834960938 114 426 c 1
 137.248046875 433.096679688 773.282226562 167.489257812 233 153 c 1
 127.35546875 154.086914062 61.8662109375 360.138671875 38 201 c 1
 20 81 176 0 287 0 c 1
 146.936523438 2.3369140625 632.993164062 -53.8916015625 632 147 c 1
 613.254882812 440.043945312 -116.522460938 539.856445312 314 630 c 1
 359.900390625 628.307617188 420.456054688 563.357421875 443 585 c 1
EndSplineSet
EndChar

StartChar: Dcroat
Encoding: 208 272 16
Width: 556
Flags: HW
LayerCount: 2
Fore
SplineSet
222 534 m 1
 288.830078125 501.157226562 318.203125 550.251953125 342 528 c 1
 409.196289062 501.052734375 449.265625 341.4921875 402 306 c 0
 355.291015625 270.924804688 291.682617188 248.982421875 262 306 c 0
 223.579101562 379.802734375 251.250976562 351.017578125 248 352 c 1
 458.43359375 337.659179688 348 484 228 428 c 1
 229.899414062 459.307617188 163.529296875 561.100585938 222 534 c 1
124 774 m 1
 -16.748046875 815.451171875 114 423 114 423 c 1
 28 444 l 1
 -4.109375 430.791015625 29.873046875 258.619140625 80 300 c 0
 119.5859375 332.678710938 158.063476562 302.87890625 131.775390625 315 c 1
 133.73828125 315.514648438 51 78 186 36 c 1
 591.919921875 -69.0595703125 566.288085938 148.422851562 528 351 c 1
 465.786132812 726.913085938 250 729 124 774 c 1
EndSplineSet
EndChar

StartChar: dcroat
Encoding: 240 273 17
Width: 388
Flags: HW
LayerCount: 2
Fore
SplineSet
95 198 m 4
 75.3916015625 245.932617188 80 273 149 246 c 4
 176.9375 235.068359375 178.603482279 206.988190739 203 198 c 4
 260 177 200 60 164 75 c 4
 42.5320555107 125.611643537 121.999528772 131.999807227 95 198 c 4
251 282 m 5
 144.33203125 266.845703125 37.1116945989 439.621157135 18 222 c 5
 0.877392616263 -90.0888671875 168.307617188 -12.2685546875 260 60 c 5
 257 -30 392 -27 365 66 c 5
 300.614457699 125.432808277 307.496226615 614.99999834 307.496226615 614.99999834 c 5
 311.427780123 633.733431495 341.240416175 617.792675286 359 618 c 5
 382.30400793 631.000000003 370.544921875 637 358 650 c 5
 345.14453125 659.263671875 324.189453125 666.130859375 306.62109375 674 c 5
 306.62109375 674 318.089399945 745.708576955 320 759 c 5
 290.962497701 782.730260866 248.457456807 675.000002788 248.457456807 675.000002788 c 5
 214.551900921 679.38554107 190.399414062 692.080078125 169 672 c 5
 142.049804688 641.578125 146.418945312 618.016601562 176 629 c 5
 245.810546875 623 l 5
 245.810546875 623 228.826666325 319.022831707 251 282 c 5
EndSplineSet
EndChar

StartChar: P
Encoding: 80 80 18
Width: 455
Flags: HW
LayerCount: 2
Fore
SplineSet
184 659 m 25
 184 659 151 560 172 545 c 8
 193 530 193 530 193 530 c 25
 193 530 286 524 301 551 c 8
 316 578 298.053710938 598.15625 289 614 c 0
 277 635 268 671 226 665 c 0
 184 659 200 661 184 659 c 25
188 402 m 1
 172.155273438 302.5625 310 227 330 109 c 1
 330 109 302 3 218 0 c 0
 134 -3 71 30 71 30 c 1
 71 30 36.3696026459 44.9329024291 50 69 c 0
 148.53605942 242.984433081 40 686 40 686 c 1
 -7 783 35.9289450457 785.93148838 73 797 c 0
 111.02123388 808.352211841 426.411132812 728.337890625 445 587 c 0
 470.537109375 392.836914062 210.346157739 450.608695968 188 402 c 1
EndSplineSet
EndChar

StartChar: d
Encoding: 100 100 19
Width: 388
Flags: HW
LayerCount: 2
Fore
SplineSet
308 654 m 5
 308 654 318.08984375 745.708984375 320 759 c 1
 250.333984375 806.778320312 252.552734375 672.576171875 248.45703125 675 c 0
 248.45703125 675 228.826666325 319.022831707 251 282 c 1
 144.33203125 266.845703125 37.1116945989 439.621157135 18 222 c 1
 0.877392616263 -90.0888671875 168.307617188 -12.2685546875 260 60 c 1
 257 -30 393 -29 366 64 c 1
 301.614257812 123.432617188 308 654 308 654 c 5
95 198 m 0
 75.3916015625 245.932617188 80 273 149 246 c 0
 176.9375 235.068359375 178.603482279 206.988190739 203 198 c 0
 260 177 200 60 164 75 c 0
 42.5320555107 125.611643537 121.999528772 131.999807227 95 198 c 0
EndSplineSet
EndChar
